<svg>
  <g
    transform="matrix(1.2357415034395907,0,0,1.2357415034395907,-18.016950750558674,-13.346008472846567)"
    fill="#111111"
  >
    <path
      xmlns="http://www.w3.org/2000/svg"
      d="M75,22.2c0,0-7.7-2-15.4-5.1C52.7,14.3,47,10.8,47,10.8s-5.6,3.6-12.6,6.3c-7.6,3.1-15.3,5-15.4,5.1  c-0.6,3.4-0.9,7-0.9,10.6c0,0.8,0,1.2,0.1,2c0.4,4.3,8,2.2,10.7,1.2c0.3-0.1,0.7-0.3,1-0.4c1-0.4,2-0.8,3.1-1.3  c2.1-0.9,4.3-2,6.6-3.2c3.3-1.8,6.7-3.8,9.6-6.1c-4.3,5.8-13.5,12.7-23.8,17.1c-2.6,1.1-6.2,2.5-8.7,2.4c-3-0.1-2,0.4-1.8,0.5  c3.2,1.6,5,3.9,5.9,6c0.6,1.4,2.7,3.6,14-2.2c6.4-3.3,14.6-8,22.9-14.6c0.3-0.2,0.6-0.5,0.9-0.7c1.8-1.5,3.7-3,5.5-4.6  c-4.3,8.7-16.4,18.8-31,26.3c-4.6,2.4-5.8,2.7-7.8,3.4c-2.7,0.9-5.3,0.5-5.3,1c-0.1,0.7,3.4,1.4,7,5c3.3,3.3,11.6-0.5,15.1-2.4  C46,60,53,55.6,57.7,51.5c0.9-0.8,1.7-1.6,2.5-2.4c-3.5,8.3-11,14.3-20.9,19.9c-2.5,1.4-6.7,2.6-8.5,3.1c-0.5,0.2-1.2,0.2-1.2,0.5  c0,0.6,4,1,6.6,2.4c3.6,1.9,6.1,2.9,7,3.2c1.2,0.5,2.5,0.8,3.8,1.1c17.2-3.8,28.8-23.5,28.8-46.6C75.9,29.2,75.6,25.6,75,22.2z"
    ></path>
  </g>
  <g
    transform="matrix(1.376749981691362,0,0,1.376749981691362,90.82341942548464,5.771833183461627)"
    fill="#111111"
  >
    <path
      d="M12.36 13.600000000000001 c4.44 0 7.12 2.52 7.12 7.2 l0 5.04 c0 4.28 -2.64 7.16 -7.12 7.16 l-3.36 0 l0 6.64 c0 0.2 -0.16 0.36 -0.36 0.36 l-4.6 0 c-0.16 0 -0.28 -0.16 -0.28 -0.36 l0 -25.68 c0 -0.2 0.12 -0.36 0.28 -0.36 l8.32 0 z M14.24 24.64 l0 -2.64 c0 -2.76 -1.28 -3.04 -4.08 -3.04 l-1.16 0 l0 8.8 l1.16 0 c2.2 0 4.08 -0.4 4.08 -3.12 z M17.08 25.560000000000002 l0 -5 c0 -4.4 -3.4 -4.76 -5.24 -4.76 l-5.4 0 c-0.08 0 -0.24 0.12 -0.24 0.24 l0 21.52 c0 0.28 0.48 0.28 0.48 0 l0 -6.8 l4.8 0 c3.52 0 5.6 -1.24 5.6 -5.2 z M6.68 16.32 l5.16 0 c4.44 0 4.72 2.92 4.72 4.24 l0 5 c0 4.08 -2.56 4.64 -5.08 4.64 l-4.8 0 l0 -13.88 z M33.865 13.84 c0.04 -0.12 0.12 -0.24 0.28 -0.24 l4.96 0 c0.16 0 0.24 0.12 0.28 0.24 l6.92 25.72 c0.04 0.24 -0.12 0.44 -0.36 0.44 l-4.56 0 c-0.12 0 -0.24 -0.08 -0.28 -0.24 l-1.56 -5.6 l-5.84 0 l-1.52 5.6 c-0.04 0.16 -0.12 0.24 -0.28 0.24 l-4.6 0 c-0.24 0 -0.4 -0.2 -0.36 -0.44 z M34.985 29.2 l3.32 0 l-1.72 -6.04 z M41.144999999999996 31.560000000000002 l1.84 6 c0.08 0.24 0.52 0.2 0.4 -0.12 l-6.4 -21.28 c-0.12 -0.52 -0.8 -0.56 -0.92 0 l-6.2 21.28 c-0.12 0.28 0.32 0.4 0.44 0.16 l1.76 -6.04 l9.08 0 z M32.185 31.04 l4.36 -14.72 l4.44 14.72 l-8.8 0 z M64.65 23.8 c3.04 1.44 7 3.72 7 7.84 c0 1.2 -0.2 3.52 -1.52 5.48 c-1.48 2.2 -3.8 3.28 -7 3.28 c-3.4 0 -7.36 -1.64 -8.6 -5.36 c-0.04 -0.12 0 -0.24 0.12 -0.32 l3.68 -3.16 c0.16 -0.12 0.4 -0.12 0.52 0.08 c0.08 0.2 0.24 0.52 0.44 0.92 c0.6 1.24 2.04 2.48 3.64 2.48 c1.24 0 2.92 -0.68 2.92 -2.6 c0 -1.84 -2.52 -2.88 -4.08 -3.48 c-1.8 -0.72 -3.64 -1.64 -5.2 -3 c-1.64 -1.52 -2.44 -3.2 -2.44 -5.2 c0 -5 4.6 -7.52 8.96 -7.52 c3.44 0 6 1.8 7.68 5.36 c0.08 0.16 0 0.36 -0.12 0.44 l-3.56 2.48 c-0.16 0.08 -0.24 0.08 -0.4 -0.12 c-1.36 -1.96 -2.56 -2.88 -4.16 -2.88 c-0.84 0 -2.8 0.32 -2.8 1.8 c0 1.8 3.32 2.72 4.92 3.48 z M57.370000000000005 34.84 c1 2 3.76 3.16 6 3.16 c2.92 0 5.28 -2 5.6 -5.04 c0.4 -3.72 -2.52 -5.32 -5.4 -6.76 l-1.28 -0.56 c-2.96 -1.32 -5.12 -2.32 -5.12 -5.08 c0 -3.04 2.8 -4.44 5.56 -4.44 c2.52 0 3.84 1.48 4.52 2.4 c0.24 0.32 0.64 0.04 0.4 -0.28 c-0.68 -0.84 -2.12 -2.6 -4.92 -2.6 c-3.16 0 -6.04 1.56 -6.04 4.92 c0 3 2.4 4.16 5.44 5.56 l1.24 0.6 c3.96 1.88 5.4 3.64 5.08 6.2 c-0.6 4.08 -3.72 4.6 -5.08 4.6 c-3 0 -5 -1.8 -5.6 -2.92 c-0.2 -0.2 -0.48 0 -0.4 0.24 z M90.39500000000001 23.8 c3.04 1.44 7 3.72 7 7.84 c0 1.2 -0.2 3.52 -1.52 5.48 c-1.48 2.2 -3.8 3.28 -7 3.28 c-3.4 0 -7.36 -1.64 -8.6 -5.36 c-0.04 -0.12 0 -0.24 0.12 -0.32 l3.68 -3.16 c0.16 -0.12 0.4 -0.12 0.52 0.08 c0.08 0.2 0.24 0.52 0.44 0.92 c0.6 1.24 2.04 2.48 3.64 2.48 c1.24 0 2.92 -0.68 2.92 -2.6 c0 -1.84 -2.52 -2.88 -4.08 -3.48 c-1.8 -0.72 -3.64 -1.64 -5.2 -3 c-1.64 -1.52 -2.44 -3.2 -2.44 -5.2 c0 -5 4.6 -7.52 8.96 -7.52 c3.44 0 6 1.8 7.68 5.36 c0.08 0.16 0 0.36 -0.12 0.44 l-3.56 2.48 c-0.16 0.08 -0.24 0.08 -0.4 -0.12 c-1.36 -1.96 -2.56 -2.88 -4.16 -2.88 c-0.84 0 -2.8 0.32 -2.8 1.8 c0 1.8 3.32 2.72 4.92 3.48 z M83.11500000000001 34.84 c1 2 3.76 3.16 6 3.16 c2.92 0 5.28 -2 5.6 -5.04 c0.4 -3.72 -2.52 -5.32 -5.4 -6.76 l-1.28 -0.56 c-2.96 -1.32 -5.12 -2.32 -5.12 -5.08 c0 -3.04 2.8 -4.44 5.56 -4.44 c2.52 0 3.84 1.48 4.52 2.4 c0.24 0.32 0.64 0.04 0.4 -0.28 c-0.68 -0.84 -2.12 -2.6 -4.92 -2.6 c-3.16 0 -6.04 1.56 -6.04 4.92 c0 3 2.4 4.16 5.44 5.56 l1.24 0.6 c3.96 1.88 5.4 3.64 5.08 6.2 c-0.6 4.08 -3.72 4.6 -5.08 4.6 c-3 0 -5 -1.8 -5.6 -2.92 c-0.2 -0.2 -0.48 0 -0.4 0.24 z M135.54000000000002 13.600000000000001 c0.24 0 0.4 0.2 0.32 0.44 l-6.88 25.72 c-0.04 0.16 -0.2 0.24 -0.36 0.24 l-4.4 0 c-0.16 0 -0.28 -0.08 -0.36 -0.24 l-2.72 -10.12 l-3.68 10.16 c-0.04 0.12 -0.12 0.2 -0.28 0.2 l-4.24 0 c-0.16 0 -0.28 -0.08 -0.32 -0.24 l-6.84 -25.76 c-0.04 -0.2 0.08 -0.4 0.36 -0.4 l4.6 0 c0.12 0 0.24 0.12 0.28 0.24 l4.44 16.96 l3.32 -10.04 l-1.84 -6.72 c-0.08 -0.24 0.12 -0.44 0.32 -0.44 l4.96 0 c0.16 0 0.24 0.04 0.32 0.24 l3.68 16.32 l4.4 -16.32 c0.04 -0.12 0.16 -0.24 0.32 -0.24 l4.6 0 z M121.46000000000001 21.16 l-6.04 16.08 l-6.48 -21.32 c-0.08 -0.28 -0.56 -0.16 -0.48 0.12 l6.48 21.36 c0.12 0.56 0.8 0.52 1 0 l5.72 -15.44 l4.2 15.4 c0.16 0.6 0.88 0.6 1 0.04 l6.36 -21.36 c0.12 -0.28 -0.4 -0.44 -0.48 -0.12 l-6.32 21.32 l-5.84 -21.32 c-0.04 -0.28 -0.56 -0.2 -0.44 0.12 z M146.16500000000002 40 c-0.2 0 -0.32 -0.16 -0.32 -0.36 l0 -25.68 c0 -0.2 0.12 -0.36 0.32 -0.36 l4.56 0 c0.2 0 0.36 0.16 0.36 0.36 l0 25.68 c0 0.2 -0.16 0.36 -0.36 0.36 l-4.56 0 z M148.245 16 l0 21.56 c0 0.36 0.44 0.36 0.44 0 l0 -21.56 c0 -0.28 -0.44 -0.28 -0.44 0 z M177.19 29.560000000000002 c-0.56 1.16 -1.36 2.04 -2.48 2.56 l3.36 7.4 c0.12 0.24 -0.04 0.48 -0.28 0.48 l-4.92 0 c-0.16 0 -0.24 -0.08 -0.28 -0.2 l-3.12 -6.8 l-2.04 0 l0 6.64 c0 0.2 -0.16 0.36 -0.36 0.36 l-4.6 0 c-0.16 0 -0.28 -0.16 -0.28 -0.36 l0 -25.68 c0 -0.2 0.12 -0.36 0.28 -0.36 l8.32 0 c4.44 0 7.12 2.52 7.12 7.2 l0 5.04 c0 1.4 -0.24 2.72 -0.72 3.72 z M172.67000000000002 24.6 l0 -2.6 c0 -2.8 -1.04 -3.08 -4.08 -3.08 l-1.16 0 l0 8.84 l1.16 0 c2.52 0 4 -0.04 4.08 -3.16 z M165.11 37.56 l0 -6.84 l5.76 0 l3.36 6.92 c0.08 0.2 0.56 0.12 0.44 -0.24 l-3.36 -6.8 c3.12 -0.44 4.2 -2.08 4.2 -5.04 l0 -5 c0 -4.4 -4 -4.76 -5.24 -4.76 l-5.4 0 c-0.08 0 -0.24 0.12 -0.24 0.24 l0 21.52 c0 0.28 0.48 0.28 0.48 0 z M175.03 20.56 l0 5 c0 4.08 -2.6 4.64 -5.12 4.64 l-4.8 0 l0 -13.88 l5.16 0 c4.32 0 4.76 2.92 4.76 4.24 z M189.05500000000004 40 c-0.2 0 -0.32 -0.16 -0.32 -0.36 l0 -25.68 c0 -0.2 0.12 -0.36 0.32 -0.36 l13.6 0 c0.2 0 0.36 0.16 0.36 0.36 l0 4.28 c0 0.2 -0.16 0.36 -0.36 0.36 l-8.64 0 l0 5.44 l6.72 0 c0.2 0 0.32 0.16 0.32 0.36 l0 4.36 c0 0.2 -0.12 0.36 -0.32 0.36 l-6.72 0 l0 5.88 l8.64 0 c0.2 0 0.36 0.16 0.36 0.36 l0 4.28 c0 0.2 -0.16 0.36 -0.36 0.36 l-13.6 0 z M191.05500000000004 16.12 l0 21.28 c0 0.24 0.16 0.32 0.32 0.32 l9.2 0 c0.36 0 0.28 -0.48 0 -0.48 l-9 0 l0 -10.44 l7.36 0 c0.24 0 0.24 -0.56 0 -0.56 l-7.36 0 l0 -9.92 l9 0 c0.28 0 0.36 -0.52 0 -0.52 l-9.2 0 c-0.16 0 -0.32 0.12 -0.32 0.32 z"
    ></path>
  </g>
</svg>
